PathFileType	4	(X/Y/Z)	Captury_Subj1_squat02.trc
DataRate	CameraRate	NumFrames	NumMarkers	Units	OrigDataRate	OrigDataStartFrame	OrigNumFrames
60.0	60.0	5	47	mm	59.99879837036133	36	284
Frame#	Time		LeftUpLeg_		RightUpLeg_		LeftLeg_		RightLeg_		LeftFoot_		RightFoot_		LeftToeBase_		RightToeBase_		Knee_Lateral_r		Knee_Lateral_l		Ankle_Lateral_r		Ankle_Lateral_l		LeftArm_		LeftForeArm_		LeftHand_		LeftHandEE		RightArm_		RightForeArm_		RightHand_		RightHandEE		Spine_		Spine1_		Spine2_		Spine3_		Spine4_		Spine5_		Spine_x		Spine_y		Spine_z		RASI		LASI		RIPS		LIPS		RTHI		LTHI		RTIB		LTIB		RTOE		LTOE		RHEE		LHEE		RHipAngles		LHipAngles		RKneeAngles		LKneeAngles		RAnkleAngles		LAnkleAngles
			X1	Y1	Z1	X2	Y2	Z2	X3	Y3	Z3	X4	Y4	Z4	X5	Y5	Z5	X6	Y6	Z6	X7	Y7	Z7	X8	Y8	Z8	X9	Y9	Z9	X10	Y10	Z10	X11	Y11	Z11	X12	Y12	Z12	X13	Y13	Z13	X14	Y14	Z14	X15	Y15	Z15	X16	Y16	Z16	X17	Y17	Z17	X18	Y18	Z18	X19	Y19	Z19	X20	Y20	Z20	X21	Y21	Z21	X22	Y22	Z22	X23	Y23	Z23	X24	Y24	Z24	X25	Y25	Z25	X26	Y26	Z26	X27	Y27	Z27	X28	Y28	Z28	X29	Y29	Z29	X30	Y30	Z30	X31	Y31	Z31	X32	Y32	Z32	X33	Y33	Z33	X34	Y34	Z34	X35	Y35	Z35	X36	Y36	Z36	X37	Y37	Z37	X38	Y38	Z38	X39	Y39	Z39	X40	Y40	Z40	X41	Y41	Z41	X42	Y42	Z42	X43	Y43	Z43	X44	Y44	Z44	X45	Y45	Z45	X46	Y46	Z46	X47	Y47	Z47

36	0.58333	-174.85696	849.23242	38.99472	-8.94367	848.07941	35.61867	-199.11980	451.38556	34.38688	16.48906	450.40042	25.78944	-221.31192	85.83749	69.61732	46.24062	85.12723	58.18358	-237.45312	31.29999	-43.79957	75.00224	30.55922	-52.69189	62.12660	450.90286	28.99043	-244.69231	451.78198	38.42096	90.54552	88.40997	79.50438	-265.27948	88.16267	91.74701	-225.05814	1375.78809	67.85998	-216.83224	1391.80090	-207.90558	-212.88203	1429.16870	-438.32419	-217.23820	1429.83447	-523.41229	40.86295	1353.58765	89.52299	44.63293	1384.44714	-185.07533	36.27612	1437.29907	-412.32306	53.26499	1437.46655	-495.81409	-90.98965	940.59918	50.66043	-91.28741	1040.18347	41.84015	-92.23087	1110.23535	64.02388	-94.95013	1187.35535	115.74937	-98.49447	1318.23767	147.55931	0.00000	0.00000	0.00000	-44.45277	940.27576	49.71348	-90.71819	987.07709	48.12819	-90.02654	943.12531	97.12949	46.14664	905.67957	-62.18682	-233.07468	907.61993	-56.50513	-53.34515	913.96936	79.30364	-127.80417	914.48682	80.81876	67.56054	662.73486	38.46993	-250.66815	663.69427	45.46748	67.56239	287.28802	28.77282	-247.78479	232.46103	39.64994	90.62856	3.85028	-117.18332	-247.10252	-2.81553	-105.92618	50.94466	27.08031	111.14317	-229.81245	27.34579	121.60535	-3.92209	1.09876	5.07493	-3.15708	0.10240	3.82611	-0.58157	1.25956	-0.06216	-0.33706	0.33619	-0.07245	5.75733	5.48959	9.85109	4.94177	-1.12841	10.08341
37	0.60000	-174.87029	849.35034	38.80934	-8.95839	848.25812	35.34398	-198.96312	451.49072	34.41064	16.29511	450.55722	25.94304	-221.30215	85.93564	69.47505	46.32488	85.28610	58.10391	-237.45934	31.57440	-44.02417	75.17188	30.84705	-52.81277	61.93690	451.04416	29.08541	-244.53534	451.86969	38.44955	90.65094	88.58330	79.37849	-265.26642	88.25416	91.61201	-225.10468	1375.42224	67.67953	-217.05801	1391.83826	-208.06763	-213.16223	1429.24426	-438.48096	-216.88081	1429.54309	-523.60138	40.87342	1353.43457	89.17736	44.59099	1384.60754	-185.38629	36.37814	1437.55554	-412.61694	52.75647	1437.67542	-496.22998	-91.03162	940.75842	50.35694	-91.36143	1040.21533	41.50059	-92.29709	1110.14160	63.66739	-94.97298	1187.11902	115.39217	-98.47395	1317.86292	147.24641	0.00000	0.00000	0.00000	-44.49514	940.45209	49.38494	-90.77934	987.23444	47.78768	-90.04421	943.32178	96.82346	46.05669	905.80170	-62.53713	-233.16223	907.63977	-56.70516	-53.36136	914.16577	79.00081	-127.81974	914.65594	80.55600	67.47168	662.88477	38.31263	-250.60124	663.78308	45.38676	67.48012	287.47717	28.78102	-247.71786	232.58386	39.57818	90.81853	4.28982	-117.36192	-247.12527	-2.39251	-106.22958	51.27000	27.23988	111.04232	-230.10880	27.42352	121.38909	-3.89765	1.05160	5.03467	-3.17272	0.09944	3.80183	-0.47985	1.31484	-0.05093	-0.27694	0.37924	-0.07174	5.74684	5.51595	10.00455	4.89588	-1.20998	10.27987
38	0.61667	-174.72209	849.00793	38.88623	-8.81544	847.97644	35.16257	-198.91544	451.15784	34.20013	16.27497	450.26389	25.82509	-221.22758	85.62958	69.55896	46.51220	85.02927	58.20395	-237.45242	31.25519	-43.92429	74.96654	30.50407	-52.77184	61.93245	450.73911	28.73257	-244.48358	451.54465	38.28411	90.94126	88.35413	79.25818	-265.16998	87.95799	91.73827	-225.12090	1375.24255	67.55468	-217.26367	1391.69727	-208.19565	-213.15688	1429.08569	-438.60822	-216.59015	1429.76904	-523.73840	40.80618	1352.86292	88.84702	44.48978	1384.40674	-185.67471	36.42928	1437.79041	-412.80890	52.37499	1438.06555	-496.50516	-90.89989	940.45258	50.26247	-91.28874	1039.89844	41.37059	-92.23626	1109.82312	63.51630	-94.91037	1186.80359	115.22340	-98.46321	1317.54395	147.05368	0.00000	0.00000	0.00000	-44.36487	940.16327	49.21803	-90.66907	986.92749	47.67220	-89.84097	943.03699	96.72625	46.02528	905.49707	-62.82977	-233.18483	907.23303	-56.56308	-53.17501	913.88678	78.85934	-127.63104	914.34973	80.53046	67.57554	662.58246	37.82833	-250.49141	663.45392	45.39296	67.49582	287.19366	28.57582	-247.66968	232.25604	39.57892	90.35835	3.98331	-117.39719	-247.16055	-2.67127	-106.14520	51.84270	27.06852	111.19856	-230.25830	27.17344	121.49754	-3.89125	1.01075	4.83355	-3.24621	0.13330	3.76974	-0.50787	1.34114	-0.03693	-0.36520	0.37446	-0.07223	5.74833	5.53840	10.13190	4.87212	-1.29802	10.46114
39	0.63333	-174.69382	849.23364	38.86853	-8.79128	848.29828	34.94087	-198.97673	451.39044	34.05658	16.40175	450.58725	25.81573	-221.16113	85.83923	69.25838	46.52560	85.33450	58.09594	-237.49588	31.58028	-44.26436	74.82706	30.81996	-52.92413	62.06552	451.07858	28.61972	-244.53899	451.78510	38.20498	91.00069	88.63650	79.05637	-265.07312	88.14083	91.50060	-225.09659	1375.28076	67.49334	-217.50749	1391.77930	-208.26187	-213.27791	1429.30969	-438.64911	-216.16615	1429.01111	-523.80176	40.87290	1353.02332	88.47603	44.34517	1384.76038	-186.02620	36.46136	1438.10352	-413.17615	52.08706	1437.90234	-496.93295	-90.91153	940.73230	50.10396	-91.35316	1040.13159	41.18559	-92.28163	1110.01514	63.31563	-94.87457	1186.95374	115.01299	-98.34394	1317.65100	146.84164	0.00000	0.00000	0.00000	-44.37767	940.46991	49.00229	-90.71127	987.20630	47.49433	-89.79690	943.33643	96.56532	45.89478	905.81091	-63.14255	-233.30838	907.38513	-56.53254	-53.13581	914.20050	78.66522	-127.58999	914.62024	80.42789	67.66322	662.92981	37.55943	-250.49258	663.69275	45.40750	67.54713	287.49130	28.44268	-247.67644	232.47540	39.39063	90.10714	4.39055	-117.61339	-247.26396	-2.21471	-106.54739	52.06649	27.39973	111.09737	-230.36632	27.37498	121.15720	-3.87458	0.99369	4.77600	-3.29676	0.17799	3.77998	-0.46667	1.29220	-0.02806	-0.36095	0.34973	-0.07330	5.75226	5.54591	10.25585	4.85342	-1.37888	10.63493
40	0.65000	-174.67216	849.19080	38.73820	-8.76523	848.16663	35.02387	-198.94193	451.34424	34.14213	16.35500	450.45581	25.69073	-221.13928	85.80240	69.43345	46.58133	85.24335	58.32871	-237.13875	31.54896	-44.13965	75.20341	30.65841	-52.57452	62.01365	450.93500	28.57898	-244.51462	451.74161	38.17405	91.01595	88.58522	79.36850	-265.10889	88.09860	91.56210	-225.12991	1375.34485	67.58060	-217.69965	1391.67871	-208.18881	-213.25504	1429.21033	-438.57187	-215.90295	1428.82068	-523.73199	40.85759	1352.82068	87.98074	44.15649	1384.95593	-186.47726	36.52661	1438.36938	-413.61929	51.97951	1437.96130	-497.40741	-90.85471	940.63977	50.11466	-91.23456	1040.02820	41.18957	-92.15025	1109.90845	63.29550	-94.73795	1186.86694	114.94524	-98.21090	1317.57861	146.66968	0.00000	0.00000	0.00000	-44.31961	940.35248	49.07283	-90.62584	987.11456	47.52212	-89.79851	943.22650	96.57836	46.07840	905.68494	-62.96820	-233.13220	907.40863	-56.71723	-53.13023	914.07709	78.71494	-127.58639	914.53674	80.38187	67.64259	662.77917	37.66443	-250.48700	663.65424	45.21341	67.56792	287.38495	28.54731	-247.60875	232.42093	39.43871	90.64041	4.26536	-117.24135	-246.72308	-2.18151	-106.48618	52.22821	27.40151	111.42039	-230.72028	27.38049	121.31194	-3.89185	1.01271	4.80668	-3.23375	0.14793	3.70860	-0.54812	1.33579	-0.02819	-0.34504	0.33624	-0.07457	5.76086	5.53291	10.41189	4.83789	-1.45671	10.80717
